# xmcd
#
# Track frame offsets:
#	150
#	13708
#	35507
#	49600
#	62650
#	86190
#	106615
#	129412
#	148191
#	164484
#	177269
#	194325
#
# Disc length: 2908 seconds
#
# Revision: 1
# Processed by: cddbd v1.5.2PL0 Copyright (c) Steve Scherf et al.
# Submitted via: audiograbber 1.83.01
#
DISCID=a20b5a0c
DTITLE=Tom Richardson, Jonno Zilber and Jason Lowe - Young Guns
DYEAR=2008
DGENRE=
TTITLE0=Satisfied Mind (Jason, Jonno and Tom)
TTITLE1=How We Let It Be (Jason)
TTITLE2=Young Woman Blues (Tom)
TTITLE3=I'm Goin' (Jonno)
TTITLE4=One Platform Station (Tom)
TTITLE5=John Brown (Jason, Jonno and Tom)
TTITLE6=Reaching For The Moon (Tom)
TTITLE7=Silent Morning (Jason)
TTITLE8=Chocolate Jesus (Jonno)
TTITLE9=My Limousine (Jonno)
TTITLE10=Crazy Love (Jason, Jonno and Tom)
TTITLE11=Faith (Jason)
EXTD=
EXTT0=
EXTT1=
EXTT2=
EXTT3=
EXTT4=
EXTT5=
EXTT6=
EXTT7=
EXTT8=
EXTT9=
EXTT10=
EXTT11=
PLAYORDER=
